<?xml version="1.0" encoding="UTF-8" standalone="no"?>
<!-- Created with Inkscape (http://www.inkscape.org/) -->

<svg
   xmlns:dc="http://purl.org/dc/elements/1.1/"
   xmlns:cc="http://creativecommons.org/ns#"
   xmlns:rdf="http://www.w3.org/1999/02/22-rdf-syntax-ns#"
   xmlns:svg="http://www.w3.org/2000/svg"
   xmlns="http://www.w3.org/2000/svg"
   xmlns:sodipodi="http://sodipodi.sourceforge.net/DTD/sodipodi-0.dtd"
   xmlns:inkscape="http://www.inkscape.org/namespaces/inkscape"
   width="221"
   height="34"
   viewBox="0 0 58.472915 8.9958336"
   version="1.1"
   id="svg8"
   inkscape:version="0.92.2 (5c3e80d, 2017-08-06)"
   sodipodi:docname="logo-dark-v2-2.svg">
  <defs
     id="defs2" />
  <sodipodi:namedview
     id="base"
     pagecolor="#ffffff"
     bordercolor="#666666"
     borderopacity="1.0"
     inkscape:pageopacity="0.0"
     inkscape:pageshadow="2"
     inkscape:zoom="3.2579186"
     inkscape:cx="177.88738"
     inkscape:cy="11.827533"
     inkscape:document-units="px"
     inkscape:current-layer="layer1"
     showgrid="false"
     units="px"
     inkscape:window-width="1920"
     inkscape:window-height="1017"
     inkscape:window-x="-8"
     inkscape:window-y="-8"
     inkscape:window-maximized="1"
     inkscape:snap-global="false"
     showguides="false"
     inkscape:guide-bbox="true">
    <inkscape:grid
       type="xygrid"
       id="grid835" />
    <sodipodi:guide
       position="7.8776013,4.2738017"
       orientation="0,1"
       id="guide837"
       inkscape:locked="false" />
  </sodipodi:namedview>
  <metadata
     id="metadata5">
    <rdf:RDF>
      <cc:Work
         rdf:about="">
        <dc:format>image/svg+xml</dc:format>
        <dc:type
           rdf:resource="http://purl.org/dc/dcmitype/StillImage" />
        <dc:title />
      </cc:Work>
    </rdf:RDF>
  </metadata>
  <g
     inkscape:label="Layer 1"
     inkscape:groupmode="layer"
     id="layer1"
     transform="translate(0,-288.00416)">
    <path
       style="opacity:1;fill:#242424;fill-opacity:1;fill-rule:nonzero;stroke:none;stroke-width:5;stroke-linecap:round;stroke-linejoin:round;stroke-miterlimit:4;stroke-dasharray:none;stroke-dashoffset:61.98424911;stroke-opacity:1;paint-order:markers stroke fill"
       d="m 9.501953,0.22851562 c -4.8397272,0 -8.73632803,3.89660528 -8.73632803,8.73632818 V 25.128906 c 0,4.839723 3.89660083,8.736328 8.73632803,8.736328 h 15.697266 c 4.839727,0 8.736328,-3.896605 8.736328,-8.736328 V 8.9648438 c 0,-4.8397229 -3.896601,-8.73632818 -8.736328,-8.73632818 z M 41.515625,4.0273438 V 30.683594 h 5.861328 V 20.267578 h 5.861328 c 1.455999,0 2.499875,0.336045 3.171875,0.970703 0.634666,0.672 1.045519,1.679205 1.269532,3.060547 0.149329,1.082646 0.261254,2.202046 0.335937,3.359375 0.07467,1.194671 0.261656,2.204062 0.597656,3.025391 h 5.861328 c -0.298665,-0.373342 -0.485436,-0.821079 -0.634765,-1.34375 -0.149329,-0.522671 -0.224145,-1.121434 -0.298828,-1.71875 -0.07457,-0.597355 -0.111328,-1.156552 -0.111328,-1.753906 -0.03727,-0.559975 -0.07422,-1.046116 -0.07422,-1.494141 -0.07465,-0.672 -0.149499,-1.343625 -0.298828,-2.015625 -0.149333,-0.672 -0.336108,-1.268113 -0.634766,-1.828125 -0.298666,-0.560013 -0.710204,-1.046386 -1.158203,-1.457031 -0.485333,-0.410684 -1.081682,-0.709468 -1.791016,-0.933594 v -0.07422 c 1.493333,-0.597354 2.538938,-1.455952 3.210938,-2.613281 0.672,-1.119988 1.007812,-2.500385 1.007812,-4.06836 0,-1.007999 -0.187205,-1.9418775 -0.560547,-2.8378901 C 62.757525,7.6489471 62.2345,6.8653594 61.5625,6.1933594 60.8905,5.5213594 60.070275,4.9984173 59.099609,4.625 58.12894,4.2517717 57.083339,4.0273438 55.888672,4.0273438 Z M 188.2793,5.5957031 v 5.7871089 h -3.21094 v 3.546876 h 3.21094 v 11.384765 c 0,0.970658 0.15033,1.756161 0.48632,2.353516 0.29867,0.597316 0.74665,1.082276 1.30665,1.380859 0.56,0.336 1.19473,0.560001 1.9414,0.671875 0.74667,0.111496 1.53023,0.148438 2.35156,0.148438 0.52267,0 1.04548,6.86e-4 1.60547,-0.03711 0.52267,0 1.04419,-0.0736 1.49219,-0.148437 v -4.107422 c -0.26133,0.07408 -0.52189,0.111328 -0.7832,0.111328 -0.29867,0.03779 -0.56072,0.03906 -0.85938,0.03906 -0.896,0 -1.49235,-0.150636 -1.79101,-0.449218 -0.29868,-0.298659 -0.44727,-0.895041 -0.44727,-1.791016 v -9.558594 h 3.88086 v -3.544922 h -3.88086 V 5.5957031 Z M 8.076172,8.2519531 h 0.65039 c 1.120425,0.00174 2.027549,0.908856 2.029297,2.0292969 0,0 0.76073,5.033327 0.759766,7.554688 -9.64e-4,2.521359 -0.759766,7.498046 -0.759766,7.498046 -0.0017,1.120441 -0.908872,2.027559 -2.029297,2.029297 h -0.65039 c -1.1204249,-0.0017 -2.027549,-0.908856 -2.029297,-2.029297 0,0 0.7388745,-4.963619 0.7402344,-7.484375 C 6.7884696,15.328891 6.046875,10.28125 6.046875,10.28125 6.048623,9.1608091 6.9557471,8.2536917 8.076172,8.2519531 Z m 8.195312,0.074219 c 0.339472,0.00643 0.671696,0.097814 0.966797,0.265625 l 13.03711,7.4472651 c 1.358264,0.776958 1.367319,2.733151 0.01563,3.521485 l -12.970704,7.566406 c -1.352516,0.787389 -3.050782,-0.183058 -3.05664,-1.748047 0,0 0.862145,-4.975539 0.851562,-7.49414 -0.01058,-2.518564 -0.917968,-7.513672 -0.917968,-7.513672 -0.0068,-1.1437237 0.930727,-2.0675993 2.074218,-2.0449221 z m 31.105469,0.2558593 h 6.419922 c 1.344,0 2.353391,0.2991301 3.025391,0.8964844 0.672,0.5973164 1.007812,1.5295114 1.007812,2.7988284 0,1.344 -0.335812,2.314755 -1.007812,2.912109 -0.672,0.59743 -1.681391,0.896485 -3.025391,0.896485 h -6.419922 z m 29.480469,2.2773438 c -1.493333,0 -2.838536,0.260532 -4.033203,0.783203 -1.194667,0.522671 -2.238989,1.270003 -3.097657,2.166016 -0.896001,0.896012 -1.567626,1.978925 -2.015624,3.210937 C 67.225616,18.288848 67,19.632098 67,21.050781 c 0,1.493329 0.223876,2.87541 0.671875,4.107422 0.447999,1.269317 1.121802,2.314963 1.980469,3.210938 0.821333,0.896012 1.865655,1.604514 3.097656,2.089843 1.194667,0.485216 2.576755,0.708985 4.107422,0.708985 2.165333,0 4.031608,-0.484188 5.599609,-1.492188 1.530667,-0.970696 2.686929,-2.652138 3.433594,-4.966797 h -4.666016 c -0.186667,0.597355 -0.671304,1.19608 -1.417968,1.71875 -0.784003,0.522822 -1.718338,0.783204 -2.763672,0.783204 -1.493333,0 -2.649595,-0.372225 -3.433594,-1.15625 -0.821337,-0.746646 -1.231957,-2.017034 -1.306641,-3.734376 h 13.923828 c 0.07466,-1.493329 -0.03705,-2.911627 -0.373046,-4.292968 -0.373331,-1.344 -0.932799,-2.575558 -1.716797,-3.658203 -0.784003,-1.045342 -1.791661,-1.904405 -2.986328,-2.539063 -1.231998,-0.634658 -2.650303,-0.970703 -4.292969,-0.970703 z m 20.429687,0 c -1.04533,0 -2.091834,0.112119 -3.0625,0.298828 -1.008,0.186671 -1.903501,0.522716 -2.6875,0.970703 -0.821333,0.447988 -1.456073,1.0832 -1.941406,1.867188 -0.485318,0.821329 -0.708984,1.828534 -0.708984,3.060547 0,0.85867 0.148142,1.568661 0.521484,2.166015 0.336,0.597317 0.785481,1.081661 1.382813,1.455078 0.560001,0.373342 1.194738,0.709468 1.941406,0.933594 0.746664,0.223899 1.493345,0.448365 2.277344,0.597656 1.866667,0.410684 3.358962,0.821896 4.404296,1.195313 1.045328,0.410683 1.605468,1.007028 1.605468,1.791015 0,0.48533 -0.11192,0.89673 -0.33594,1.195313 -0.224,0.298658 -0.52337,0.559385 -0.859371,0.746094 -0.336,0.186519 -0.708476,0.335321 -1.119141,0.410156 -0.410668,0.07408 -0.784861,0.113281 -1.158203,0.113281 -0.522667,0 -1.043964,-0.03821 -1.529297,-0.1875 -0.485333,-0.112025 -0.896189,-0.299003 -1.269531,-0.560547 -0.373334,-0.261316 -0.709581,-0.597129 -0.933594,-1.007812 -0.224012,-0.410646 -0.335937,-0.894871 -0.335937,-1.492188 H 88.4375 c 0.03733,1.306659 0.336708,2.389376 0.859375,3.248047 0.522667,0.858671 1.231401,1.530102 2.052734,2.052735 0.821333,0.52267 1.792332,0.896967 2.875,1.121093 1.045331,0.224126 2.165158,0.335938 3.285157,0.335938 1.082668,0 2.165603,-0.0747 3.210934,-0.298828 1.04534,-0.224013 2.01656,-0.598423 2.83789,-1.121094 0.82134,-0.522671 1.45585,-1.194064 1.97852,-2.052734 0.52268,-0.858633 0.7832,-1.941621 0.7832,-3.210938 0,-0.896012 -0.18548,-1.642918 -0.52148,-2.240234 -0.37334,-0.597355 -0.82282,-1.120567 -1.38281,-1.53125 -0.59734,-0.410684 -1.23186,-0.746647 -1.97852,-1.007813 -0.74667,-0.224012 -1.49161,-0.448057 -2.23828,-0.634765 -0.74667,-0.14933 -1.493792,-0.335084 -2.203126,-0.484375 -0.746665,-0.14933 -1.381409,-0.29962 -1.941406,-0.486329 -0.560002,-0.18667 -1.007751,-0.447511 -1.34375,-0.746093 C 94.3376,17.05681 94.1875,16.684548 94.1875,16.199219 c 0,-0.373342 0.07482,-0.709468 0.298828,-0.933594 0.186667,-0.223975 0.410326,-0.411256 0.708984,-0.560547 0.298666,-0.112252 0.597362,-0.186814 0.970704,-0.224609 0.336,-0.03704 0.672044,-0.07422 0.970703,-0.07422 0.933335,0 1.755509,0.18713 2.464843,0.560547 0.671998,0.373342 1.081568,1.044734 1.156248,2.052734 h 5.04102 c -0.112,-1.194671 -0.41093,-2.165231 -0.9336,-2.949219 -0.52266,-0.784025 -1.15762,-1.418967 -1.90429,-1.904296 -0.784,-0.447988 -1.67972,-0.783687 -2.65039,-1.007813 -0.970669,-0.186709 -1.978106,-0.298828 -3.023441,-0.298828 z m 45.427731,0 c -1.26933,0 -2.42581,0.297642 -3.39648,0.820313 -0.97067,0.559974 -1.82995,1.345747 -2.50195,2.316406 h -0.0742 v -2.613282 h -5.00196 v 19.300782 h 5.30079 V 19.482422 c 0,-0.933317 0.11149,-1.680027 0.41015,-2.277344 0.26134,-0.597354 0.59736,-1.045167 0.97071,-1.34375 0.37333,-0.298658 0.78464,-0.522891 1.19531,-0.634766 0.41067,-0.112251 0.74649,-0.185546 1.00781,-0.185546 0.82134,0 1.4563,0.148683 1.9043,0.447265 0.448,0.298659 0.74692,0.673107 0.93359,1.121094 0.18667,0.485367 0.29852,1.006394 0.33594,1.566406 0,0.560013 0.0371,1.121628 0.0371,1.681641 v 10.826172 h 5.30078 V 19.931641 c 0,-0.597355 0.0366,-1.158505 0.11133,-1.75586 0.0747,-0.597316 0.26212,-1.118381 0.52343,-1.566406 0.26134,-0.447987 0.63404,-0.822511 1.08204,-1.121094 0.448,-0.298696 1.08341,-0.447265 1.83007,-0.447265 0.74667,0 1.30591,0.148921 1.75391,0.373046 0.448,0.261317 0.78575,0.59713 1.00977,1.007813 0.22399,0.447987 0.33551,0.934128 0.41015,1.494141 0.0373,0.597316 0.0742,1.193466 0.0742,1.828125 v 10.939453 h 5.30078 V 17.765625 c 0,-1.232013 -0.18548,-2.277816 -0.52148,-3.173828 -0.37333,-0.895975 -0.8597,-1.60405 -1.45703,-2.164063 -0.63467,-0.52267 -1.38157,-0.934147 -2.24024,-1.195312 -0.896,-0.224126 -1.82794,-0.373047 -2.83594,-0.373047 -1.34399,0 -2.53909,0.336045 -3.50976,0.970703 -0.97067,0.672 -1.75445,1.418868 -2.31445,2.240234 -0.52267,-1.19467 -1.30646,-2.016586 -2.31446,-2.501953 -1.008,-0.448138 -2.12955,-0.708984 -3.32422,-0.708984 z m 31.55664,0 c -1.08266,0 -2.1656,0.111812 -3.21093,0.335937 -1.04534,0.224126 -2.01461,0.559593 -2.83594,1.044922 -0.85867,0.522671 -1.56913,1.157187 -2.0918,1.978516 -0.56,0.821329 -0.85892,1.867635 -0.93359,3.099609 h 5.30273 c 0.0747,-1.045341 0.44759,-1.792247 1.04493,-2.240234 0.59733,-0.448025 1.41755,-0.671875 2.46289,-0.671875 0.44799,0 0.89597,0.03725 1.30664,0.111328 0.41066,0.07446 0.78531,0.186338 1.08398,0.373047 0.29866,0.186709 0.55943,0.449156 0.74609,0.785156 0.18668,0.336 0.29883,0.783738 0.29883,1.34375 0,0.560013 -0.15032,0.970873 -0.48633,1.269531 -0.37334,0.298583 -0.82063,0.485437 -1.41796,0.634766 -0.59734,0.149291 -1.30607,0.261103 -2.05274,0.335938 -0.784,0.07483 -1.56952,0.186954 -2.35351,0.298828 -0.82134,0.149291 -1.60468,0.297396 -2.38868,0.521484 -0.78399,0.224126 -1.49251,0.522948 -2.08984,0.933594 -0.59734,0.448025 -1.12081,1.007455 -1.49414,1.716797 -0.37334,0.709341 -0.56055,1.606769 -0.56055,2.689453 0,1.008 0.15033,1.86683 0.48633,2.576172 0.336,0.746645 0.82064,1.343028 1.41797,1.791015 0.59733,0.48533 1.27046,0.82091 2.0918,1.044922 0.78399,0.224126 1.64283,0.335938 2.57617,0.335938 1.19466,0 2.35048,-0.148105 3.50781,-0.521485 1.12,-0.336 2.12961,-0.934103 2.98828,-1.830078 0,0.336 0.0368,0.672045 0.11133,0.970703 0.0747,0.298583 0.14973,0.597789 0.26172,0.896485 h 5.375 c -0.26132,-0.373418 -0.44682,-0.97164 -0.52149,-1.792969 -0.11198,-0.783987 -0.15039,-1.603987 -0.15039,-2.5 V 16.347656 c 0,-1.157329 -0.26052,-2.091477 -0.7832,-2.800781 -0.52267,-0.709342 -1.19429,-1.269042 -2.01562,-1.679687 -0.82134,-0.373418 -1.7559,-0.633874 -2.72657,-0.783204 -1.008,-0.149291 -1.97855,-0.224609 -2.94922,-0.224609 z m 34.63672,0 c -1.49333,0 -2.83658,0.260532 -4.03125,0.783203 -1.19466,0.522671 -2.24094,1.270003 -3.09961,2.166016 -0.896,0.896012 -1.56762,1.978925 -2.01562,3.210937 -0.48532,1.269317 -0.70899,2.612567 -0.70899,4.03125 0,1.493329 0.22388,2.87541 0.67188,4.107422 0.448,1.269317 1.11985,2.314963 1.97851,3.210938 0.82134,0.896012 1.86761,1.604514 3.09961,2.089843 1.19467,0.485216 2.57481,0.708985 4.10547,0.708985 2.16534,0 4.03356,-0.484188 5.60157,-1.492188 1.53066,-0.970696 2.68692,-2.652138 3.43359,-4.966797 h -4.66602 c -0.18666,0.597355 -0.67325,1.19608 -1.41992,1.71875 -0.784,0.522822 -1.71638,0.783204 -2.76172,0.783204 -1.49333,0 -2.65155,-0.372225 -3.43554,-1.15625 -0.82134,-0.746646 -1.23196,-2.017034 -1.30664,-3.734376 h 13.92578 c 0.0746,-1.493329 -0.037,-2.911627 -0.37305,-4.292968 -0.37333,-1.344 -0.9328,-2.575558 -1.7168,-3.658203 -0.784,-1.045342 -1.79166,-1.904405 -2.98633,-2.539063 -1.232,-0.634658 -2.65225,-0.970703 -4.29492,-0.970703 z m -99.48437,0.523437 v 11.871094 c 0,1.194671 0.0748,2.314498 0.29883,3.285156 0.224,0.970697 0.59647,1.829954 1.11914,2.501954 0.52266,0.672 1.2329,1.194942 2.1289,1.568359 0.896,0.373304 2.0911,0.558594 3.50977,0.558594 1.12,0 2.20249,-0.223423 3.28515,-0.746094 1.04534,-0.485329 1.94129,-1.305794 2.61329,-2.425781 h 0.11132 v 2.6875 h 5.04102 V 11.382812 h -5.30273 V 21.5 c 0,1.978696 -0.33604,3.397189 -0.97071,4.255859 -0.672,0.858671 -1.71609,1.269532 -3.13476,1.269532 -1.26933,0 -2.16506,-0.374178 -2.65039,-1.158203 C 114.95,25.0832 114.72461,23.88852 114.72461,22.283203 V 11.382812 Z m -90.375002,2.550782 c -0.471332,-0.0076 -0.858256,0.372443 -0.855469,0.84375 0,0 0.374545,2.05758 0.378907,3.095703 0.0043,1.038123 -0.351563,3.089844 -0.351563,3.089844 0.0024,0.645089 0.702274,1.045251 1.259766,0.720703 l 5.345703,-3.119141 c 0.557151,-0.325039 0.553994,-1.130895 -0.0059,-1.451172 l -5.373046,-3.070312 c -0.121637,-0.06917 -0.258512,-0.10673 -0.398438,-0.109375 z m 57.658203,0.919922 c 1.269332,0 2.240334,0.372922 2.875,1.044922 0.634666,0.709303 1.082434,1.7185 1.34375,3.0625 h -8.623047 c 0,-0.373304 0.07333,-0.784203 0.222657,-1.269532 0.149333,-0.447987 0.374937,-0.895762 0.710937,-1.34375 0.336,-0.410683 0.783749,-0.746339 1.34375,-1.044922 0.559998,-0.298696 1.268286,-0.449218 2.126953,-0.449218 z m 132.052739,0 c 1.26933,0 2.24033,0.372922 2.875,1.044922 0.63467,0.709303 1.08243,1.7185 1.34375,3.0625 h -8.625 c 0,-0.373304 0.0753,-0.784203 0.2246,-1.269532 0.14934,-0.447987 0.37299,-0.895762 0.70899,-1.34375 0.336,-0.410683 0.78375,-0.746339 1.34375,-1.044922 0.56,-0.298696 1.27024,-0.449218 2.12891,-0.449218 z m -31.31446,6.384765 v 1.978516 c 0,0.298583 -0.0368,0.709983 -0.11133,1.195312 -0.0747,0.522671 -0.225,1.006859 -0.48632,1.492188 -0.29866,0.485329 -0.70953,0.896422 -1.26954,1.232422 -0.59733,0.373417 -1.38044,0.523437 -2.42578,0.523437 -0.448,0 -0.85908,-0.0392 -1.23242,-0.113281 -0.41066,-0.07484 -0.74625,-0.186338 -1.04492,-0.373047 -0.29866,-0.186709 -0.55965,-0.447203 -0.70898,-0.783203 -0.18668,-0.298583 -0.26172,-0.709983 -0.26172,-1.195313 0,-0.485329 0.0751,-0.896421 0.26172,-1.232421 0.14932,-0.298583 0.37321,-0.559191 0.67187,-0.783203 0.29866,-0.224126 0.63448,-0.374184 1.00781,-0.523438 0.37334,-0.111874 0.7827,-0.224371 1.19336,-0.298828 0.41067,-0.07446 0.82154,-0.110712 1.26953,-0.185547 0.41067,-0.03779 0.82198,-0.112665 1.19532,-0.1875 0.37334,-0.07484 0.74603,-0.149845 1.08203,-0.261719 0.336,-0.111874 0.63537,-0.260211 0.85937,-0.484375 z"
       transform="matrix(0.26458333,0,0,0.26458333,0,288.00416)"
       id="rect820"
       inkscape:connector-curvature="0"
       sodipodi:nodetypes="sssssssssccccscccccscccccccccscscsccccccscccsccccscscccccccccsccccsccccccccscccscscsccssccscccsccccsccccccsscccscccccscccscccccsccscccscccccccscccsccccccsscccccccscccscccsccscccscccsccscccscccssccccccscccscccccccscccsccccccsscccsscccscccsccccsccccccscscccscccccccscscscccccccccccsccccccssccccccscscccscccscccccssc" />
  </g>
</svg>
