<?xml version="1.0" encoding="UTF-8" standalone="no"?>
<!-- Created with Inkscape (http://www.inkscape.org/) -->

<svg
   xmlns:dc="http://purl.org/dc/elements/1.1/"
   xmlns:cc="http://creativecommons.org/ns#"
   xmlns:rdf="http://www.w3.org/1999/02/22-rdf-syntax-ns#"
   xmlns:svg="http://www.w3.org/2000/svg"
   xmlns="http://www.w3.org/2000/svg"
   xmlns:sodipodi="http://sodipodi.sourceforge.net/DTD/sodipodi-0.dtd"
   xmlns:inkscape="http://www.inkscape.org/namespaces/inkscape"
   width="221"
   height="34"
   viewBox="0 0 58.472915 8.9958336"
   version="1.1"
   id="svg8"
   inkscape:version="0.92.2 (5c3e80d, 2017-08-06)"
   sodipodi:docname="logo-dark-v1.svg">
  <defs
     id="defs2" />
  <sodipodi:namedview
     id="base"
     pagecolor="#ffffff"
     bordercolor="#666666"
     borderopacity="1.0"
     inkscape:pageopacity="0.0"
     inkscape:pageshadow="2"
     inkscape:zoom="2.8"
     inkscape:cx="34.802462"
     inkscape:cy="43.972429"
     inkscape:document-units="px"
     inkscape:current-layer="layer1"
     showgrid="false"
     units="px"
     inkscape:window-width="1920"
     inkscape:window-height="1017"
     inkscape:window-x="1912"
     inkscape:window-y="-8"
     inkscape:window-maximized="1" />
  <metadata
     id="metadata5">
    <rdf:RDF>
      <cc:Work
         rdf:about="">
        <dc:format>image/svg+xml</dc:format>
        <dc:type
           rdf:resource="http://purl.org/dc/dcmitype/StillImage" />
        <dc:title />
      </cc:Work>
    </rdf:RDF>
  </metadata>
  <g
     inkscape:label="Layer 1"
     inkscape:groupmode="layer"
     id="layer1"
     transform="translate(0,-288.00416)">
    <path
       style="color:#000000;font-style:normal;font-variant:normal;font-weight:normal;font-stretch:normal;font-size:medium;line-height:normal;font-family:sans-serif;font-variant-ligatures:normal;font-variant-position:normal;font-variant-caps:normal;font-variant-numeric:normal;font-variant-alternates:normal;font-feature-settings:normal;text-indent:0;text-align:start;text-decoration:none;text-decoration-line:none;text-decoration-style:solid;text-decoration-color:#000000;letter-spacing:normal;word-spacing:normal;text-transform:none;writing-mode:lr-tb;direction:ltr;text-orientation:mixed;dominant-baseline:auto;baseline-shift:baseline;text-anchor:start;white-space:normal;shape-padding:0;clip-rule:nonzero;display:inline;overflow:visible;visibility:visible;opacity:1;isolation:auto;mix-blend-mode:normal;color-interpolation:sRGB;color-interpolation-filters:linearRGB;solid-color:#000000;solid-opacity:1;vector-effect:none;fill:#242424;fill-opacity:1;fill-rule:nonzero;stroke:none;stroke-width:2.9801774;stroke-linecap:round;stroke-linejoin:miter;stroke-miterlimit:4;stroke-dasharray:none;stroke-dashoffset:16.39999962;stroke-opacity:1;paint-order:markers stroke fill;color-rendering:auto;image-rendering:auto;shape-rendering:auto;text-rendering:auto;enable-background:accumulate"
       d="M 17.261719 0.47460938 C 14.376381 0.55366115 11.504752 1.3758159 8.9394531 2.9589844 C 3.0759126 6.5776552 0.021801221 13.43209 1.2558594 20.210938 A 1.4902377 1.4902377 0 1 0 4.1855469 19.679688 C 3.1695672 14.098762 5.6765508 8.4772595 10.503906 5.4980469 C 15.331261 2.5188721 21.472851 2.8044249 26.005859 6.2148438 A 1.4918825 1.4918825 0 1 0 27.800781 3.8300781 C 25.047775 1.7588592 21.79294 0.63811395 18.498047 0.48632812 C 18.086185 0.467336 17.67391 0.46331626 17.261719 0.47460938 z M 41.515625 4.0273438 L 41.515625 30.683594 L 47.376953 30.683594 L 47.376953 20.267578 L 53.238281 20.267578 C 54.69428 20.267578 55.738156 20.603623 56.410156 21.238281 C 57.044822 21.910281 57.455675 22.917486 57.679688 24.298828 C 57.829017 25.381474 57.940942 26.500874 58.015625 27.658203 C 58.090293 28.852874 58.277281 29.862265 58.613281 30.683594 L 64.474609 30.683594 C 64.175944 30.310252 63.989173 29.862515 63.839844 29.339844 C 63.690515 28.817173 63.615699 28.21841 63.541016 27.621094 C 63.466446 27.023739 63.429688 26.464542 63.429688 25.867188 C 63.392421 25.307213 63.355469 24.821072 63.355469 24.373047 C 63.280823 23.701047 63.20597 23.029422 63.056641 22.357422 C 62.907308 21.685422 62.720533 21.089309 62.421875 20.529297 C 62.123209 19.969284 61.711671 19.482911 61.263672 19.072266 C 60.778339 18.661582 60.18199 18.362798 59.472656 18.138672 L 59.472656 18.064453 C 60.965989 17.467099 62.011594 16.608501 62.683594 15.451172 C 63.355594 14.331184 63.691406 12.950787 63.691406 11.382812 C 63.691406 10.374813 63.504201 9.4409345 63.130859 8.5449219 C 62.757525 7.6489471 62.2345 6.8653594 61.5625 6.1933594 C 60.8905 5.5213594 60.070275 4.9984173 59.099609 4.625 C 58.12894 4.2517717 57.083339 4.0273438 55.888672 4.0273438 L 41.515625 4.0273438 z M 188.2793 5.5957031 L 188.2793 11.382812 L 185.06836 11.382812 L 185.06836 14.929688 L 188.2793 14.929688 L 188.2793 26.314453 C 188.2793 27.285111 188.42963 28.070614 188.76562 28.667969 C 189.06429 29.265285 189.51227 29.750245 190.07227 30.048828 C 190.63227 30.384828 191.267 30.608829 192.01367 30.720703 C 192.76034 30.832199 193.5439 30.869141 194.36523 30.869141 C 194.8879 30.869141 195.41071 30.869827 195.9707 30.832031 C 196.49337 30.832031 197.01489 30.758428 197.46289 30.683594 L 197.46289 26.576172 C 197.20156 26.650251 196.941 26.6875 196.67969 26.6875 C 196.38102 26.725295 196.11897 26.726562 195.82031 26.726562 C 194.92431 26.726562 194.32796 26.575926 194.0293 26.277344 C 193.73062 25.978685 193.58203 25.382303 193.58203 24.486328 L 193.58203 14.927734 L 197.46289 14.927734 L 197.46289 11.382812 L 193.58203 11.382812 L 193.58203 5.5957031 L 188.2793 5.5957031 z M 29.814453 6.5253906 A 1.4902377 1.4902377 0 0 0 28.730469 8.9316406 C 28.848862 9.088869 28.958764 9.2482035 29.070312 9.4101562 A 1.4916565 1.4916565 0 1 0 31.527344 7.7207031 C 31.391647 7.5234118 31.251445 7.3278873 31.107422 7.1367188 A 1.4902377 1.4902377 0 0 0 29.962891 6.5253906 A 1.4902377 1.4902377 0 0 0 29.814453 6.5253906 z M 47.376953 8.5820312 L 53.796875 8.5820312 C 55.140875 8.5820312 56.150266 8.8811613 56.822266 9.4785156 C 57.494266 10.075832 57.830078 11.008027 57.830078 12.277344 C 57.830078 13.621344 57.494266 14.592099 56.822266 15.189453 C 56.150266 15.786883 55.140875 16.085938 53.796875 16.085938 L 47.376953 16.085938 L 47.376953 8.5820312 z M 32.103516 10.791016 A 1.4902377 1.4902377 0 0 0 30.767578 12.777344 C 32.662109 18.342282 30.818711 24.482146 26.175781 28.087891 C 21.532852 31.693636 15.131697 31.957382 10.208984 28.744141 A 1.4905334 1.4905334 0 0 0 8.578125 31.238281 C 14.556258 35.140454 22.369448 34.820216 28.007812 30.441406 C 33.646178 26.062635 35.888605 18.576457 33.587891 11.818359 A 1.4902377 1.4902377 0 0 0 32.103516 10.791016 z M 11.449219 10.814453 A 1.4902377 1.4902377 0 0 0 9.9589844 12.304688 L 9.9589844 23.333984 A 1.4902377 1.4902377 0 0 0 11.449219 24.824219 L 13.810547 24.824219 A 1.4902377 1.4902377 0 0 0 15.302734 23.333984 L 15.302734 12.304688 A 1.4902377 1.4902377 0 0 0 13.810547 10.814453 L 11.449219 10.814453 z M 76.857422 10.859375 C 75.364089 10.859375 74.018886 11.119907 72.824219 11.642578 C 71.629552 12.165249 70.58523 12.912581 69.726562 13.808594 C 68.830561 14.704606 68.158936 15.787519 67.710938 17.019531 C 67.225616 18.288848 67 19.632098 67 21.050781 C 67 22.54411 67.223876 23.926191 67.671875 25.158203 C 68.119874 26.42752 68.793677 27.473166 69.652344 28.369141 C 70.473677 29.265153 71.517999 29.973655 72.75 30.458984 C 73.944667 30.9442 75.326755 31.167969 76.857422 31.167969 C 79.022755 31.167969 80.88903 30.683781 82.457031 29.675781 C 83.987698 28.705085 85.14396 27.023643 85.890625 24.708984 L 81.224609 24.708984 C 81.037942 25.306339 80.553305 25.905064 79.806641 26.427734 C 79.022638 26.950556 78.088303 27.210938 77.042969 27.210938 C 75.549636 27.210938 74.393374 26.838713 73.609375 26.054688 C 72.788038 25.308042 72.377418 24.037654 72.302734 22.320312 L 86.226562 22.320312 C 86.301223 20.826983 86.189516 19.408685 85.853516 18.027344 C 85.480185 16.683344 84.920717 15.451786 84.136719 14.369141 C 83.352716 13.323799 82.345058 12.464736 81.150391 11.830078 C 79.918393 11.19542 78.500088 10.859375 76.857422 10.859375 z M 97.287109 10.859375 C 96.241779 10.859375 95.195275 10.971494 94.224609 11.158203 C 93.216609 11.344874 92.321108 11.680919 91.537109 12.128906 C 90.715776 12.576894 90.081036 13.212106 89.595703 13.996094 C 89.110385 14.817423 88.886719 15.824628 88.886719 17.056641 C 88.886719 17.915311 89.034861 18.625302 89.408203 19.222656 C 89.744203 19.819973 90.193684 20.304317 90.791016 20.677734 C 91.351017 21.051076 91.985754 21.387202 92.732422 21.611328 C 93.479086 21.835227 94.225767 22.059693 95.009766 22.208984 C 96.876433 22.619668 98.368728 23.03088 99.414062 23.404297 C 100.45939 23.81498 101.01953 24.411325 101.01953 25.195312 C 101.01953 25.680642 100.90761 26.092042 100.68359 26.390625 C 100.45959 26.689283 100.16022 26.95001 99.824219 27.136719 C 99.488219 27.323238 99.115743 27.47204 98.705078 27.546875 C 98.29441 27.620954 97.920217 27.660156 97.546875 27.660156 C 97.024208 27.660156 96.502911 27.621948 96.017578 27.472656 C 95.532245 27.360631 95.121389 27.173653 94.748047 26.912109 C 94.374713 26.650793 94.038466 26.31498 93.814453 25.904297 C 93.590441 25.493651 93.478516 25.009426 93.478516 24.412109 L 88.4375 24.412109 C 88.474834 25.718768 88.774208 26.801485 89.296875 27.660156 C 89.819542 28.518827 90.528276 29.190258 91.349609 29.712891 C 92.170942 30.235561 93.141941 30.609858 94.224609 30.833984 C 95.26994 31.05811 96.389767 31.169922 97.509766 31.169922 C 98.592434 31.169922 99.675369 31.09522 100.7207 30.871094 C 101.76604 30.647081 102.73726 30.272671 103.55859 29.75 C 104.37993 29.227329 105.01444 28.555936 105.53711 27.697266 C 106.05979 26.838633 106.32031 25.755645 106.32031 24.486328 C 106.32031 23.590316 106.13483 22.84341 105.79883 22.246094 C 105.42549 21.648739 104.97601 21.125527 104.41602 20.714844 C 103.81868 20.30416 103.18416 19.968197 102.4375 19.707031 C 101.69083 19.483019 100.94589 19.258974 100.19922 19.072266 C 99.45255 18.922936 98.705428 18.737182 97.996094 18.587891 C 97.249429 18.438561 96.614685 18.288271 96.054688 18.101562 C 95.494686 17.914892 95.046937 17.654051 94.710938 17.355469 C 94.3376 17.05681 94.1875 16.684548 94.1875 16.199219 C 94.1875 15.825877 94.262316 15.489751 94.486328 15.265625 C 94.672995 15.04165 94.896654 14.854369 95.195312 14.705078 C 95.493978 14.592826 95.792674 14.518264 96.166016 14.480469 C 96.502016 14.443429 96.83806 14.40625 97.136719 14.40625 C 98.070054 14.40625 98.892228 14.59338 99.601562 14.966797 C 100.27356 15.340139 100.68313 16.011531 100.75781 17.019531 L 105.79883 17.019531 C 105.68683 15.82486 105.3879 14.8543 104.86523 14.070312 C 104.34257 13.286287 103.70761 12.651345 102.96094 12.166016 C 102.17694 11.718028 101.28122 11.382329 100.31055 11.158203 C 99.339881 10.971494 98.332444 10.859375 97.287109 10.859375 z M 142.71484 10.859375 C 141.44551 10.859375 140.28903 11.157017 139.31836 11.679688 C 138.34769 12.239662 137.48841 13.025435 136.81641 13.996094 L 136.74219 13.996094 L 136.74219 11.382812 L 131.74023 11.382812 L 131.74023 30.683594 L 137.04102 30.683594 L 137.04102 19.482422 C 137.04102 18.549105 137.15251 17.802395 137.45117 17.205078 C 137.71251 16.607724 138.04853 16.159911 138.42188 15.861328 C 138.79521 15.56267 139.20652 15.338437 139.61719 15.226562 C 140.02786 15.114311 140.36368 15.041016 140.625 15.041016 C 141.44634 15.041016 142.0813 15.189699 142.5293 15.488281 C 142.9773 15.78694 143.27622 16.161388 143.46289 16.609375 C 143.64956 17.094742 143.76141 17.615769 143.79883 18.175781 C 143.79883 18.735794 143.83594 19.297409 143.83594 19.857422 L 143.83594 30.683594 L 149.13672 30.683594 L 149.13672 19.931641 C 149.13672 19.334286 149.17336 18.773136 149.24805 18.175781 C 149.32271 17.578465 149.51017 17.0574 149.77148 16.609375 C 150.03282 16.161388 150.40552 15.786864 150.85352 15.488281 C 151.30152 15.189585 151.93693 15.041016 152.68359 15.041016 C 153.43026 15.041016 153.9895 15.189937 154.4375 15.414062 C 154.8855 15.675379 155.22325 16.011192 155.44727 16.421875 C 155.67126 16.869862 155.78278 17.356003 155.85742 17.916016 C 155.89469 18.513332 155.93164 19.109482 155.93164 19.744141 L 155.93164 30.683594 L 161.23242 30.683594 L 161.23242 17.765625 C 161.23242 16.533612 161.04694 15.487809 160.71094 14.591797 C 160.33761 13.695822 159.85124 12.987747 159.25391 12.427734 C 158.61924 11.905064 157.87234 11.493587 157.01367 11.232422 C 156.11767 11.008296 155.18573 10.859375 154.17773 10.859375 C 152.83374 10.859375 151.63864 11.19542 150.66797 11.830078 C 149.6973 12.502078 148.91352 13.248946 148.35352 14.070312 C 147.83085 12.875642 147.04706 12.053726 146.03906 11.568359 C 145.03106 11.120221 143.90951 10.859375 142.71484 10.859375 z M 174.27148 10.859375 C 173.18882 10.859375 172.10588 10.971187 171.06055 11.195312 C 170.01521 11.419438 169.04594 11.754905 168.22461 12.240234 C 167.36594 12.762905 166.65548 13.397421 166.13281 14.21875 C 165.57281 15.040079 165.27389 16.086385 165.19922 17.318359 L 170.50195 17.318359 C 170.57664 16.273018 170.94954 15.526112 171.54688 15.078125 C 172.14421 14.6301 172.96443 14.40625 174.00977 14.40625 C 174.45776 14.40625 174.90574 14.443499 175.31641 14.517578 C 175.72707 14.592035 176.10172 14.703916 176.40039 14.890625 C 176.69905 15.077334 176.95982 15.339781 177.14648 15.675781 C 177.33316 16.011781 177.44531 16.459519 177.44531 17.019531 C 177.44531 17.579544 177.29499 17.990404 176.95898 18.289062 C 176.58564 18.587645 176.13835 18.774499 175.54102 18.923828 C 174.94368 19.073119 174.23495 19.184931 173.48828 19.259766 C 172.70428 19.3346 171.91876 19.44672 171.13477 19.558594 C 170.31343 19.707885 169.53009 19.85599 168.74609 20.080078 C 167.9621 20.304204 167.25358 20.603026 166.65625 21.013672 C 166.05891 21.461697 165.53544 22.021127 165.16211 22.730469 C 164.78877 23.43981 164.60156 24.337238 164.60156 25.419922 C 164.60156 26.427922 164.75189 27.286752 165.08789 27.996094 C 165.42389 28.742739 165.90853 29.339122 166.50586 29.787109 C 167.10319 30.272439 167.77632 30.608019 168.59766 30.832031 C 169.38165 31.056157 170.24049 31.167969 171.17383 31.167969 C 172.36849 31.167969 173.52431 31.019864 174.68164 30.646484 C 175.80164 30.310484 176.81125 29.712381 177.66992 28.816406 C 177.66992 29.152406 177.70668 29.488451 177.78125 29.787109 C 177.85593 30.085692 177.93098 30.384898 178.04297 30.683594 L 183.41797 30.683594 C 183.15665 30.310176 182.97115 29.711954 182.89648 28.890625 C 182.7845 28.106638 182.74609 27.286638 182.74609 26.390625 L 182.74609 16.347656 C 182.74609 15.190327 182.48557 14.256179 181.96289 13.546875 C 181.44022 12.837533 180.7686 12.277833 179.94727 11.867188 C 179.12593 11.49377 178.19137 11.233314 177.2207 11.083984 C 176.2127 10.934693 175.24215 10.859375 174.27148 10.859375 z M 208.9082 10.859375 C 207.41487 10.859375 206.07162 11.119907 204.87695 11.642578 C 203.68229 12.165249 202.63601 12.912581 201.77734 13.808594 C 200.88134 14.704606 200.20972 15.787519 199.76172 17.019531 C 199.2764 18.288848 199.05273 19.632098 199.05273 21.050781 C 199.05273 22.54411 199.27661 23.926191 199.72461 25.158203 C 200.17261 26.42752 200.84446 27.473166 201.70312 28.369141 C 202.52446 29.265153 203.57073 29.973655 204.80273 30.458984 C 205.9974 30.9442 207.37754 31.167969 208.9082 31.167969 C 211.07354 31.167969 212.94176 30.683781 214.50977 29.675781 C 216.04043 28.705085 217.19669 27.023643 217.94336 24.708984 L 213.27734 24.708984 C 213.09068 25.306339 212.60409 25.905064 211.85742 26.427734 C 211.07342 26.950556 210.14104 27.210938 209.0957 27.210938 C 207.60237 27.210938 206.44415 26.838713 205.66016 26.054688 C 204.83882 25.308042 204.4282 24.037654 204.35352 22.320312 L 218.2793 22.320312 C 218.35395 20.826983 218.24225 19.408685 217.90625 18.027344 C 217.53292 16.683344 216.97345 15.451786 216.18945 14.369141 C 215.40545 13.323799 214.39779 12.464736 213.20312 11.830078 C 211.97112 11.19542 210.55087 10.859375 208.9082 10.859375 z M 18.46875 10.865234 A 1.4902377 1.4902377 0 0 0 16.957031 12.363281 L 17 23.369141 A 1.4902377 1.4902377 0 0 0 19.244141 24.646484 L 28.744141 19.103516 A 1.4902377 1.4902377 0 0 0 28.738281 16.519531 L 19.185547 11.064453 A 1.4902377 1.4902377 0 0 0 18.46875 10.865234 z M 109.42383 11.382812 L 109.42383 23.253906 C 109.42383 24.448577 109.49864 25.568404 109.72266 26.539062 C 109.94666 27.509759 110.31913 28.369016 110.8418 29.041016 C 111.36446 29.713016 112.0747 30.235958 112.9707 30.609375 C 113.8667 30.982679 115.0618 31.167969 116.48047 31.167969 C 117.60047 31.167969 118.68296 30.944546 119.76562 30.421875 C 120.81096 29.936546 121.70691 29.116081 122.37891 27.996094 L 122.49023 27.996094 L 122.49023 30.683594 L 127.53125 30.683594 L 127.53125 11.382812 L 122.22852 11.382812 L 122.22852 21.5 C 122.22852 23.478696 121.89248 24.897189 121.25781 25.755859 C 120.58581 26.61453 119.54172 27.025391 118.12305 27.025391 C 116.85372 27.025391 115.95799 26.651213 115.47266 25.867188 C 114.95 25.0832 114.72461 23.88852 114.72461 22.283203 L 114.72461 11.382812 L 109.42383 11.382812 z M 76.707031 14.853516 C 77.976363 14.853516 78.947365 15.226438 79.582031 15.898438 C 80.216697 16.607741 80.664465 17.616938 80.925781 18.960938 L 72.302734 18.960938 C 72.302734 18.587634 72.376061 18.176735 72.525391 17.691406 C 72.674724 17.243419 72.900328 16.795644 73.236328 16.347656 C 73.572328 15.936973 74.020077 15.601317 74.580078 15.302734 C 75.140076 15.004038 75.848364 14.853516 76.707031 14.853516 z M 208.75977 14.853516 C 210.0291 14.853516 211.0001 15.226438 211.63477 15.898438 C 212.26944 16.607741 212.7172 17.616938 212.97852 18.960938 L 204.35352 18.960938 C 204.35352 18.587634 204.4288 18.176735 204.57812 17.691406 C 204.72746 17.243419 204.95111 16.795644 205.28711 16.347656 C 205.62311 15.936973 206.07086 15.601317 206.63086 15.302734 C 207.19086 15.004038 207.9011 14.853516 208.75977 14.853516 z M 19.945312 14.931641 L 25.009766 17.833984 L 19.96875 20.771484 L 19.945312 14.931641 z M 177.44531 21.238281 L 177.44531 23.216797 C 177.44531 23.51538 177.40855 23.92678 177.33398 24.412109 C 177.2593 24.93478 177.10898 25.418968 176.84766 25.904297 C 176.549 26.389626 176.13813 26.800719 175.57812 27.136719 C 174.98079 27.510136 174.19768 27.660156 173.15234 27.660156 C 172.70434 27.660156 172.29326 27.620954 171.91992 27.546875 C 171.50926 27.47204 171.17367 27.360537 170.875 27.173828 C 170.57634 26.987119 170.31535 26.726625 170.16602 26.390625 C 169.97934 26.092042 169.9043 25.680642 169.9043 25.195312 C 169.9043 24.709983 169.97938 24.298891 170.16602 23.962891 C 170.31534 23.664308 170.53923 23.4037 170.83789 23.179688 C 171.13655 22.955562 171.47237 22.805504 171.8457 22.65625 C 172.21904 22.544376 172.6284 22.431879 173.03906 22.357422 C 173.44973 22.282965 173.8606 22.24671 174.30859 22.171875 C 174.71926 22.13408 175.13057 22.05921 175.50391 21.984375 C 175.87725 21.90954 176.24994 21.83453 176.58594 21.722656 C 176.92194 21.610782 177.22131 21.462445 177.44531 21.238281 z M 4.0820312 22.46875 A 1.4902377 1.4902377 0 0 0 2.7167969 24.640625 C 3.3931262 26.00802 4.2575505 27.277533 5.2773438 28.412109 A 1.4902377 1.4902377 0 1 0 7.4921875 26.417969 C 6.6538584 25.485257 5.944654 24.442466 5.3886719 23.318359 A 1.4902377 1.4902377 0 0 0 4.0820312 22.46875 z "
       transform="matrix(0.26458333,0,0,0.26458333,0,288.00416)"
       id="path831" />
  </g>
</svg>
